<svg width="114" height="159" viewBox="0 0 114 159" fill="none" xmlns="http://www.w3.org/2000/svg">
<path d="M7.49999 17C13.8333 11.1666 31.4999 10.4999 47.6118 17C57.171 20.8565 4.11186 22.4379 2.11186 19.4379C-0.38814 14.6045 -1.9229 15.7262 17 6.49999C41.6118 -5.50001 55.1118 9.43793 55.1118 11.9379C55.1118 14.4379 51.5573 31.4337 48.1119 46.9378C46.1118 55.9378 46.1118 60.9378 49.6118 59.9378C50.9451 58.7712 53.9118 56.6378 55.1118 57.4378C56.6118 58.4378 58.1118 63.4378 60.6118 62.4378C63.1118 61.4378 65.1118 55.4378 67.1118 56.4378C69.1118 57.4378 71.6118 60.9378 73.1118 59.9378C74.6118 58.9378 75.6118 57.4378 75.6118 52.4378C75.6118 48.4378 72.2785 23.7712 70.6118 11.9379C70.9451 6.93788 71.6118 -3 91.5 3C108.078 8.00133 113.333 11.6045 113 14.9378C113.333 18.7712 110.712 23.2378 95.1118 22.4378C79.5118 21.6378 76.9451 17.1045 77.6118 14.9378C78.6118 12.2712 83.1 11.1379 91.5 11.9379C102 12.9379 107.112 13.9378 110.612 22.4378C113.412 29.2378 111.778 50.9378 110.612 60.9378C109.945 67.1045 104.212 80.1378 86.6118 82.9378C84.96 83.2006 83.2894 83.4302 81.6118 83.6299M81.6118 83.6299C61.1118 81.5 48.5589 84.693 41.6118 83.9378C42.2785 80.6045 45.1118 77.5 51.1118 77.5C58.6118 77.5 57.1118 81.5 61.1118 81.5C65.1118 81.5 67.1118 77.5 71.6118 77.5C76.1118 77.5 82.1118 79.8219 81.6118 83.6299ZM81.6118 83.6299C81.6118 87.2325 76.7204 91.523 60.1118 92.5C51.6118 93 40.6667 91.1667 43 87.5C44.6667 85.8333 52.3118 82.1 55.1118 90.5C57.9118 98.9 61.1118 116.438 61.1118 121.938C61.1118 132.938 61.1118 155.738 61.1118 158.938" stroke="black"/>
</svg>
