<svg width="142" height="190" viewBox="0 0 142 190" fill="none" xmlns="http://www.w3.org/2000/svg">
<path d="M1 113C7.83333 132.667 4 188 50.5 189C76.9939 189.57 102.055 148.324 126.555 138.324C153.489 127.331 149 -56.5 67 18.5C-15 93.5 5.5 34 15.0001 29C21 21.5 38 18.5 43.5 34.9999C30.5 40.5 14 39.5 8.99999 32.5C3.99999 21 -0.0124836 4.00012 26.5553 6.32433C76.5 10.6936 40.736 34.508 29 64.5C20 87.5 47 78.5 56.5 78.5C64.1 78.5 69.1667 85.6666 70.5 87.5M21 113C25.1667 111.5 33.3 102.2 40.5 107C44 109.333 48.0746 107.606 50.5 107C54.5 106 56.5 111.5 72.5 116.5C85.3 120.5 87 121.333 87.5 120.5C76 132.833 40.5 139.5 20.5 115C29 118.333 51.5 121.5 90 120.5M80 34.9999C91.5 18.5 113 18 128 39C121.5 40.5 98 45 80 34.9999Z" stroke="black"/>
</svg>
