<svg width="153" height="177" viewBox="0 0 153 177" fill="none" xmlns="http://www.w3.org/2000/svg">
<path d="M39.5 134.5C51.5 143 39.5 171.5 77.5 176C103.816 179.116 110 142 134.5 132C161.433 121.007 172.105 -67.395 60 27.5C10 69.8243 -4.49997 40.5 5.00007 35.5C11 30 25 32 34.5 39C21.5001 49 9.99998 44.5 7.00002 36C2.00002 24.5 -8.49999 11.9999 18 14.9999C44.5 17.9999 39.3478 59.5328 30.5 90.5C23.5 115 48 106.5 57.5554 102.5C66.5107 98.7512 68.1667 103.667 69.5 105.5M41.5 118.5C46.5 118.5 54.5554 122 57.5554 124C59.8054 125.5 64.5 124.5 66.5 123C68.5 121.5 75 121.271 80.5 122.5C84 123.282 99 121.833 99.5 121C92.5 134 49 154 42 119.5C52.5 128 61 133 103 120M75.5 38C82.5554 37 105.5 38 123.5 31.5C116.5 44.5 91.5 60.5 75.5 38Z" stroke="black"/>
</svg>
