<svg width="115" height="163" viewBox="0 0 115 163" fill="none" xmlns="http://www.w3.org/2000/svg">
<path d="M12.1119 18.4379C18.4452 12.6046 35.8039 3.28955 48.1119 18.4379C54.6119 26.4379 4.11187 26.4379 2.11187 23.4379C-0.388129 18.6046 -0.28813 7.63793 20.1119 2.43793C45.6119 -4.06207 55.1118 13.438 55.1118 15.9379C55.1118 18.4379 51.5573 35.4337 48.1119 50.9379C46.1118 59.9379 46.1118 64.9379 49.6118 63.9379C50.9451 62.7712 53.9118 60.6379 55.1118 61.4379C56.6118 62.4379 58.1118 67.4379 60.6118 66.4379C63.1118 65.4379 65.1118 59.4379 67.1118 60.4379C69.1118 61.4379 71.6118 64.9379 73.1118 63.9379C74.6118 62.9379 75.6118 61.4379 75.6118 56.4379C75.6118 52.4379 72.2785 27.7712 70.6118 15.9379C70.9451 10.9379 75.9118 1.43787 93.1118 3.43787C110.312 5.43787 113.945 12.6046 113.612 15.9379C113.945 19.7712 110.712 27.2379 95.1118 26.4379C79.5118 25.6379 76.9451 21.1045 77.6118 18.9379C78.6118 16.2712 82.7118 11.1379 91.1118 11.9379C101.612 12.9379 107.112 17.9379 110.612 26.4379C113.412 33.2379 111.778 54.9379 110.612 64.9379C109.945 71.1045 104.212 84.1379 86.6118 86.9379C84.96 87.2007 83.2894 87.4303 81.6118 87.6299M81.6118 87.6299C65.4141 89.5576 48.559 88.693 41.6118 87.9379C42.2785 84.6045 45.1118 77.9379 51.1118 77.9379C58.6118 77.9379 57.1118 81.9379 61.1118 81.9379C65.1118 81.9379 67.1118 77.9379 71.6118 77.9379C76.1118 77.9379 82.1118 83.822 81.6118 87.6299ZM81.6118 87.6299C81.6118 91.2326 77.7204 100.961 61.1118 101.938C52.6118 102.438 45.2785 98.1045 47.6118 94.4379C49.2785 92.7712 53.3118 91.5379 56.1118 99.9379C58.9118 108.338 61.1118 120.438 61.1118 125.938C61.1118 136.938 61.1118 159.738 61.1118 162.938" stroke="black"/>
</svg>
