<svg width="133" height="180" viewBox="0 0 133 180" fill="none" xmlns="http://www.w3.org/2000/svg">
<path d="M25 130.5C37 139 42 174 80 178.5C106.316 181.616 119 171 120.5 169.5C139.182 150.819 143.353 -87.9039 66.7648 37.4225C28.2648 100.422 5.50001 70.5001 14 50.0001C17.5 40.0001 40 26.5001 53.5 51.0001C38 55.5001 22.5 57.0001 10.7647 50.9222C-15.8336 37.1465 19.522 13.9678 46.0781 16.4222C94.7649 20.9222 81.8113 46.4215 100 73C113.687 93 86.3123 89.1578 83.5 90C74.1999 92.7853 73 91 72 89M50 127.5C55 127.5 76 114 80 113C91.1566 110.211 91.5 117 93.5 115.5C95.5 114 97.5 111.771 103 113C106.5 113.782 120 128.333 120.5 127.5C119.5 131.5 78.5 141 48.5 126.5C60.4997 133.5 80.5 112 123 128.5M90.7649 48.0001C95.2649 38.5001 120.928 21.5001 127.428 51.0001C120 53.0001 111.5 54.0001 90.7649 48.0001Z" stroke="black"/>
</svg>
