<svg width="135" height="197" viewBox="0 0 135 197" fill="none" xmlns="http://www.w3.org/2000/svg">
<path d="M23.0001 152.5C35.0001 161 37.0001 191.5 75.0001 196C101.316 199.116 99.5 169 114 149.5C131.358 126.156 142.089 -85.3262 65.4999 40.0001C26.9999 103 -10.5002 60.4999 11.4998 49.5004C17.4998 44.0004 42.5001 47.0004 53 49.5004C41.5501 66.4999 20.4999 60.76 9.49985 53.4999C-15.5001 36.9999 18.2571 16.5455 44.8132 18.9999C93.5 23.4999 84.3487 70.6738 96.5 100.5C107.5 127.5 70.5759 110.924 68.5 113C67 114.5 67.5 115 67.5 116.5M41 139C46 139 57.5 140 61.5 139C72.6566 136.211 75.5 141.5 77.5 140C79.5 138.5 81.5 137.771 87 139C90.5 139.782 105.5 132.833 106 132C98.5 157.5 70.5 166.5 42 139C69.5 140 74 157 107.5 131M97.4998 49.5001C106.313 42.0001 115.5 46.5 133.5 40C126.5 53 117 69.5001 97.4998 49.5001Z" stroke="black"/>
</svg>
