<svg width="113" height="169" viewBox="0 0 113 169" fill="none" xmlns="http://www.w3.org/2000/svg">
<path d="M6.5 17.5C12.8333 11.6667 38.5 -8.5 48.1119 24.4379C50.9994 34.333 4.11187 32.4379 2.11187 29.4379C-0.388127 24.6046 -0.9 7.7 19.5 2.5C45 -4 55.1118 19.438 55.1118 21.9379C55.1118 24.4379 54.5573 42.9958 51.1118 58.5C49.1118 67.5 49.1118 72.5 52.6118 71.5C53.9451 70.3333 53.9118 66.6379 55.1118 67.4379C56.6118 68.4379 58.1118 73.4379 60.6118 72.4379C63.1118 71.4379 65.1118 65.4379 67.1118 66.4379C69.1118 67.4379 68 73.4379 69.5 72.4379C71 71.4379 72 69.9379 72 64.9379C72 60.9379 72.2785 33.7712 70.6118 21.9379C70.9451 16.9379 76.2674 11.4869 93.1118 15.5C112 20 112.333 21.6045 112 24.9379C112.333 28.7712 108.712 30.2379 93.1118 29.4379C77.5118 28.6379 76.9451 27.1045 77.6118 24.9379C78.6118 22.2712 82.6 21.1379 91 21.9379C101.5 22.9379 107.112 23.9379 110.612 32.4379C113.412 39.2379 111.778 60.9379 110.612 70.9379C109.945 77.1045 104.212 90.1379 86.6118 92.9379C84.96 93.2007 83.2894 93.4303 81.6118 93.6299M81.6118 93.6299C65.4141 95.5576 48.559 94.693 41.6118 93.9379C42.2785 90.6045 45.1118 88.9379 51.1118 88.9379C58.6118 88.9379 57.1118 92.9379 61.1118 92.9379C65.1118 92.9379 67.1118 88.9379 71.6118 88.9379C76.1118 88.9379 82.1118 89.822 81.6118 93.6299ZM81.6118 93.6299C81.6118 97.2326 77.2204 98.523 60.6118 99.5C52.1118 100 44.7785 100.167 47.1118 96.5C48.7785 94.8333 53.2236 95 55.6118 97.5C61.728 103.903 61.1118 126.438 61.1118 131.938C61.1118 142.938 61.1118 165.738 61.1118 168.938" stroke="black"/>
</svg>
